<?xml version="1.0" encoding="utf-8"?>
<!-- Uploaded to: SVG Repo, www.svgrepo.com, Generator: SVG Repo Mixer Tools -->
<svg width="800px" height="800px" viewBox="-20.34 0 357.512 357.512" xmlns="http://www.w3.org/2000/svg"><defs><style>.a{fill:#ffffff;}.b{fill:#211715;}.c{fill:#7a7473;}.d{fill:#bce2ef;}</style></defs><path class="a" d="M96.461,127.928c-.555,3.211-7.452,11.224-10.456,12.335-8.665,3.2-16.729,5.117-18.725,7a19.844,19.844,0,0,0-1.962,2.117c-3.415,3.5-9.353,21.851-13.845,37.876l6.959.894c.889.076,2.03.146,3.355.209.287,3.776.573,7.533.573,7.533.638,17.448-.718,29.212-3.61,45.47l-9.674-1.435c-17.111-3.186-30.261-6.369-38.519-13.334-2.747-2.317-5.345-4.978-6.712-8.3-2.825-6.868-1.057-15.643,1.9-23.1,9.487-23.887,24.793-42.62,37.4-67.117l7.609-12.931,45.556,2.667Z"/><path class="a" d="M289.938,355.007l24.493-.206c-1.918-18.912-4.445-43.776-7.007-67.526,0,0-.4-3.661-.839-7.713-12.617,1.7-27.507,2.974-35.88,3.925l-2.669.251c-.228,30.172-.378,61.039-.515,71.457Z"/><path class="a" d="M115.711,355.175c.008-9.249-2.959-70.8-4.643-107.032l-4.746-.28c-12.555.182-39.221-1.3-48.406-1.892,3.459-18.748,5.141-31.023,4.444-50.074,0,0-.245-3.574-.524-7.531,8.591.409,24.839.56,30.434.524a29.944,29.944,0,0,0,11.154-2.5c11.33-4.72,21.255-8.917,47.355-13.307A48.026,48.026,0,0,0,166.372,185.9a58.425,58.425,0,0,0,26.556,6.176c5.945-.013,16.093-.322,26.777-6.954,8.293-5.148,13.2-11.449,14.979-14.71,14.424,6.448,18.325,7.547,29.2,12.533A89.039,89.039,0,0,1,283.422,194.9,42.629,42.629,0,0,1,295.9,211.469c4.849,12.307,10.84,38.619,15.479,66.375a1,1,0,0,1-.834,1.159c-13.316,1.978-30.574,3.431-39.844,4.484l-2.67.33c-.227,30.147-.377,60.969-.514,71.378Z"/><path class="a" d="M194.158,69.377c-.474-.938-1.02-1.9-1.675-2.936-6.3-9.111-16.518-19.926-29.9-24.741,0,0-10.264-3.961-17-.882q-.349,1.294-.673,2.714A69.863,69.863,0,0,0,142.5,55.36c-1.764,8.942-4.187,21.359-13.152,24.439a8.464,8.464,0,0,0-4.451,3.195c-2.714,4.15.8,6.8,2.762,9.773a13.894,13.894,0,0,1,2.151,6.355,85.9,85.9,0,0,0-.331,13.247,37.119,37.119,0,0,0,1.475,9.175c1.8,5.4,4.734,8.441,8,10.289,6.391,3.622,15.551,6.069,21.854,5.443a3.02,3.02,0,0,1,3.233,2.35c.142.628,1.667,15.982,1.594,19.021a23.165,23.165,0,0,1-.41,4.558c-1.094,4.856-9.8,9.344-14.254,10.1a47.706,47.706,0,0,0,15.4,12.589,58.425,58.425,0,0,0,26.556,6.176c5.945-.013,16.093-.322,26.777-6.954a46.253,46.253,0,0,0,14.214-13.425c-3.139-2.137-9.545-5.587-11.086-9.58-.619-1.6-1.017-8.041-1.128-12.43a19.787,19.787,0,0,1,.667-5.445,16.783,16.783,0,0,1,4.322-6.988c-8.288-6.664-17.248-21.518-18.729-30.178,0,0-.051-.3-.138-.817a22.1,22.1,0,0,0,8.221-13.461c.805-3.676.2-8.408-2.389-11.056A8.681,8.681,0,0,0,206.6,79.4c-3.124.25-5.249,1.778-7.491,3.774C196.888,76.888,196.178,73.373,194.158,69.377Z"/><path class="b" d="M94.147,127.29c-.039.193-.095.379-.147.568-.149.537.093-.135-.1.265a16.141,16.141,0,0,1-.96,1.719,28.812,28.812,0,0,1-2.387,3.224,35.931,35.931,0,0,1-3.12,3.279c-.231.212-.465.421-.705.624s-.352.292-.375.308a9.626,9.626,0,0,1-1.269.79c.638-.335-.645.22-.876.3q-.8.288-1.6.566-1.765.613-3.542,1.194c-1.913.629-3.832,1.236-5.741,1.875-2.615.874-5.643,1.685-7.743,3.566-3.539,3.171-5.328,7.536-7.035,11.858-2.412,6.1-4.408,12.378-6.316,18.656q-3.361,11.059-6.215,22.267c-.762,3,3.866,4.273,4.629,1.276a371.164,371.164,0,0,1,11.711-38.791,66.915,66.915,0,0,1,2.8-6.669,23.951,23.951,0,0,1,1.26-2.286c.092-.144.193-.283.284-.428.26-.41-.027.018-.022.013.368-.406.7-.842,1.069-1.248.393-.436.81-.846,1.231-1.254.25-.241-.405.2.112-.081.489-.267.958-.543,1.468-.773,1.091-.493,2.848-1.079,4.223-1.537,4.088-1.362,8.324-2.49,12.293-4.174,2.736-1.161,5-3.718,6.877-5.94s4.242-4.96,4.825-7.894a2.461,2.461,0,0,0-1.676-2.953,2.423,2.423,0,0,0-2.952,1.677Z"/><path class="b" d="M140.622,172.5a182.708,182.708,0,0,0-34.361,10.136,60.471,60.471,0,0,1-8.718,3.179,33.013,33.013,0,0,1-7.944.683q-7.665-.014-15.329-.164c-5.274-.1-10.579-.136-15.838-.576a2.42,2.42,0,0,0-2.4,2.4,2.448,2.448,0,0,0,2.4,2.4c9.861.825,19.865.7,29.753.736a55.5,55.5,0,0,0,6.825-.182,39.98,39.98,0,0,0,10.67-3.078c4.54-1.887,9.106-3.7,13.78-5.236a190.045,190.045,0,0,1,22.438-5.67,2.423,2.423,0,0,0,1.676-2.952,2.448,2.448,0,0,0-2.952-1.676Z"/><path class="c" d="M202.818,2.44a80.215,80.215,0,0,0-12.853,1.186c-21.66,3.725-33.476,16.649-35.619,19.605-4.166,5.75-6.786,10.264-8.761,17.6,6.731-3.093,17,.87,17,.87,13.38,4.815,23.6,15.63,29.9,24.741,3.444,5.434,3.883,8.97,6.629,16.737,2.242-2,4.367-3.524,7.491-3.774a8.681,8.681,0,0,1,7.056,2.333c2.593,2.648,3.194,7.38,2.389,11.056a22.1,22.1,0,0,1-8.221,13.461c.087.518.138.817.138.817,1.481,8.66,10.443,23.516,18.733,30.181,4.262-4.492,10.527-8.312,14.674-11.552,9.481-7.407,24-22.518,27.3-46.353A70.62,70.62,0,0,0,263,41.848c-12.149-26.37-29.63-33.481-40.593-36.74A66.346,66.346,0,0,0,202.818,2.44Z"/><path class="b" d="M149.453,175.212a51.844,51.844,0,0,0,13.868,11.758,58.565,58.565,0,0,0,21.566,6.992c11.834,1.523,24.329.012,34.767-6.017a48.511,48.511,0,0,0,16.235-14.885c1.7-2.587-2.45-4.994-4.145-2.423-6.716,10.184-18.886,17.224-31.053,18.638-11.043,1.283-22.683-.2-32.666-5.228a48.116,48.116,0,0,1-15.178-12.229,2.42,2.42,0,0,0-3.394,0,2.45,2.45,0,0,0,0,3.394Z"/><path class="b" d="M143.442,40.3c-2.19,6.307-2.824,12.856-4.265,19.331-1.095,4.925-2.448,10.428-5.738,14.377-1.729,2.076-3.6,2.932-6,3.98-3.042,1.329-5.595,4.036-5.9,7.457-.275,3.1,1.767,5.41,3.483,7.725a11.858,11.858,0,0,1,2.035,4.1,12.787,12.787,0,0,1,.124,4.445,82.757,82.757,0,0,0-.07,11.124,34.662,34.662,0,0,0,2.137,10.963,20.739,20.739,0,0,0,5.041,7.576,26.279,26.279,0,0,0,7.574,4.536,49.316,49.316,0,0,0,9.73,3.065,43.106,43.106,0,0,0,4.771.681c1.494.127,2.959-.042,4.442.007.347.012.514-.087.772.217-.048-.056.228.516.172.532-.032.009-.092-.8-.046-.327.011.108.026.216.038.324.04.343.076.685.113,1.028.2,1.847.376,3.7.548,5.547.428,4.6,1.077,9.317.737,13.943-.212,2.9-1.845,4.65-4.324,6.338a23.8,23.8,0,0,1-7.86,3.589c-3,.708-1.733,5.337,1.276,4.629,5.224-1.23,11.159-4.412,14.142-9,2.5-3.846,1.677-9.355,1.331-13.726-.322-4.056-.685-8.113-1.141-12.156-.246-2.179-.938-4.1-3.062-5.171-1.518-.766-3.046-.476-4.667-.468a27.475,27.475,0,0,1-4.438-.34,46.166,46.166,0,0,1-9.582-2.649,22.928,22.928,0,0,1-7.132-3.993c-5.155-4.709-5.81-12.147-5.91-18.713q-.042-2.8.093-5.6c.072-1.509.347-3.055.347-4.56,0-3.606-1.912-6.9-4.031-9.654a8.719,8.719,0,0,1-1.792-2.944,3.336,3.336,0,0,1,1.288-3.1,13.072,13.072,0,0,1,3.741-1.885,14.929,14.929,0,0,0,3.4-2.148c4.3-3.509,6.49-9.112,7.946-14.305.731-2.6,1.287-5.253,1.815-7.9.708-3.562,1.082-7.152,2-10.681.429-1.661.93-3.3,1.492-4.922,1.015-2.924-3.62-4.18-4.628-1.276Z"/><path class="b" d="M147.132,44.606a48.8,48.8,0,0,1,5.69-14.82c1.171-1.933,2.559-3.707,3.786-5.6-.52.8.235-.272.434-.5.343-.4.7-.787,1.06-1.169A54.248,54.248,0,0,1,177.2,9.743a67.887,67.887,0,0,1,49.8-.58,55.417,55.417,0,0,1,9.043,4.353,59.063,59.063,0,0,1,19.2,19.091,71.394,71.394,0,0,1,11.467,34.326c1.225,20.9-8.243,40.786-23.84,54.423-3.173,2.773-6.6,5.076-10.02,7.585-4.189,3.076-8.6,6.445-11.253,11.018-2.949,5.082-2.384,11.176-1.939,16.8a22.009,22.009,0,0,0,.966,6.26,14.762,14.762,0,0,0,4.955,5.9c2.027,1.583,4.2,2.94,6.353,4.335,2.6,1.683,5.011-2.471,2.423-4.145a59.183,59.183,0,0,1-6.375-4.387c-1.539-1.31-2.808-2.587-3.15-4.539a63.9,63.9,0,0,1-.609-7.22c-.141-2.923-.291-5.832.628-8.658,1.441-4.427,5.933-7.864,9.55-10.572,3.652-2.733,7.462-5.243,10.948-8.194,16.064-13.6,26.411-33.82,26.279-55.056a75.218,75.218,0,0,0-9.939-36.473,67.475,67.475,0,0,0-20.279-22.753C224.305-.479,201.294-2.75,181.665,3.1a63.621,63.621,0,0,0-24.408,13.541,48.1,48.1,0,0,0-12.29,18.305A59.294,59.294,0,0,0,142.5,43.33c-.677,3.009,3.95,4.293,4.629,1.276Z"/><path class="b" d="M269.921,355.2c.182-13.9.22-27.8.309-41.7q.191-29.324.459-58.647c.092-8.825.193-17.65.367-26.474.061-3.09-4.739-3.09-4.8,0-.34,17.253-.459,34.51-.593,51.765q-.218,27.918-.379,55.836c-.044,6.405-.079,12.811-.163,19.216-.041,3.089,4.759,3.091,4.8,0Z"/><path class="b" d="M107.787,228.672q.457,10.686.97,21.37.687,14.756,1.381,29.51.737,15.76,1.454,31.521.609,13.464,1.168,26.93c.218,5.4.474,10.808.544,16.215,0,.319.007.638.007.957,0,3.088,4.8,3.093,4.8,0,0-4.814-.254-9.635-.442-14.444q-.508-12.971-1.109-25.938-.7-15.657-1.438-31.311-.7-15.042-1.409-30.084-.529-11.362-1.04-22.724-.043-1-.086-2c-.132-3.077-4.933-3.093-4.8,0Z"/><path class="b" d="M305.024,287.275q2.923,27.117,5.659,54.255.675,6.636,1.348,13.271a2.468,2.468,0,0,0,2.4,2.4,2.415,2.415,0,0,0,2.4-2.4q-2.625-25.886-5.328-51.764-.829-7.882-1.679-15.762a2.471,2.471,0,0,0-2.4-2.4,2.415,2.415,0,0,0-2.4,2.4Z"/><path class="b" d="M241.05,175.809c8.231,3.513,16.629,6.684,24.662,10.646a86.8,86.8,0,0,1,11.073,6.488,54.453,54.453,0,0,1,9.954,8.381,42.015,42.015,0,0,1,6.841,10.8,72.39,72.39,0,0,1,2.836,8.279c2.4,7.927,4.335,16,6.12,24.084q1.794,8.128,3.357,16.306.818,4.248,1.583,8.506.41,2.285.807,4.571.189,1.089.375,2.179l.165.972.082.486q.1.974.131,0l.861-.861a7.54,7.54,0,0,1-2.305.377q-1.072.15-2.147.291-2.664.349-5.332.664c-3.664.435-7.333.832-11,1.214-6.134.638-12.277,1.2-18.405,1.895a2.473,2.473,0,0,0-2.4,2.4,2.415,2.415,0,0,0,2.4,2.4c11.305-1.279,22.645-2.212,33.931-3.668q2.117-.273,4.232-.568c1.693-.237,3.554-.272,4.493-1.973.885-1.6.13-3.711-.157-5.388q-.454-2.655-.928-5.307-1.861-10.43-4.039-20.8a304.017,304.017,0,0,0-8.274-32.479,51.389,51.389,0,0,0-6.723-13.84c-3.606-5.082-8.193-8.933-13.245-12.513-11.115-7.877-24.088-12.38-36.523-17.686a2.48,2.48,0,0,0-3.283.861,2.415,2.415,0,0,0,.861,3.283Z"/><path class="b" d="M205.65,107.709c1.01,5.665,3.844,11.115,6.8,15.989a60.663,60.663,0,0,0,11.931,14.736,2.461,2.461,0,0,0,3.394,0,2.421,2.421,0,0,0,0-3.394,56.456,56.456,0,0,1-11.18-13.764c-2.762-4.557-5.37-9.546-6.314-14.844a2.422,2.422,0,0,0-2.952-1.676,2.455,2.455,0,0,0-1.677,2.953Z"/><path class="b" d="M159.623,43.209a49.331,49.331,0,0,1,20.11,11.916c4.855,4.576,9.75,10.012,12.655,16.077,1.806,3.773,2.791,7.934,4.151,11.877,1,2.9,5.64,1.655,4.629-1.276-1.345-3.9-2.412-7.906-4.039-11.7a42.594,42.594,0,0,0-5.785-9.242,70.829,70.829,0,0,0-17.15-16.194A49.186,49.186,0,0,0,160.9,38.58c-2.976-.847-4.247,3.783-1.276,4.629Z"/><path class="b" d="M202.189,83.712c2.443-1.9,6.025-2.769,8.812-1.049,2.623,1.619,3.136,5.22,2.943,8.039a19.48,19.48,0,0,1-8.186,14.1,27.639,27.639,0,0,1-9.562,3.953c-3.009.691-1.735,5.32,1.276,4.628,7.336-1.686,14.154-5.532,17.971-12.223,3.774-6.614,5.753-17.934-2.019-22.638a11.927,11.927,0,0,0-7.866-1.388,14.262,14.262,0,0,0-6.763,3.188,2.413,2.413,0,0,0,0,3.394,2.462,2.462,0,0,0,3.394,0Z"/><path class="b" d="M152.643,35.322a49,49,0,0,1-4.807,2.895q-1.223.642-2.479,1.214c-.2.089-.392.176-.589.263-.108.047-.852.392-.273.119-.442.208-.912.371-1.368.545a2.6,2.6,0,0,0-1.434,1.1,2.4,2.4,0,0,0,2.71,3.526,51.658,51.658,0,0,0,10.663-5.52,2.4,2.4,0,0,0-2.423-4.145Z"/><path class="b" d="M41.077,126.868c-9.892,19.171-22.835,36.6-32.4,55.941-4.567,9.229-9.7,19.84-8.495,30.436a21.386,21.386,0,0,0,6.969,13.53,39.274,39.274,0,0,0,9.948,6.789c9.8,4.7,20.742,6.7,31.343,8.682a2.465,2.465,0,0,0,2.952-1.676,2.423,2.423,0,0,0-1.676-2.953c-9.289-1.732-18.769-3.494-27.571-7.036C15.105,227.749,7.052,222.7,5.264,214.8c-1.062-4.693-.188-9.695,1.156-14.236A93.834,93.834,0,0,1,12.246,186.4a296.388,296.388,0,0,1,14.932-26.284c6.263-10.13,12.578-20.232,18.044-30.824,1.414-2.741-2.726-5.172-4.145-2.423Z"/><path class="a" d="M100.422,66.716c-13.436,7.936-42.607,26.431-56.3,35.22a6.447,6.447,0,0,0-2.181,8.511c4.275,7.856,10.573,19.3,14.9,27.115a6.44,6.44,0,0,0,8.346,2.728c13.337-6.174,46.181-21.534,59.93-28.476a2.863,2.863,0,0,0,1.218-3.935c-4.578-8.358-17.369-31.714-21.946-40.069A2.863,2.863,0,0,0,100.422,66.716Z"/><path class="d" d="M86.372,96.652c-14.129,4.709-16.6-3.834-33.124,8.4a2.853,2.853,0,0,0-.818,3.629c2.337,4.4,7.531,14.13,10.427,19.508a4.246,4.246,0,0,0,5.559,1.827c10.252-4.849,33.868-16.155,45.506-21.835a3.35,3.35,0,0,0,1.5-4.576c-1.134-2.152-2.543-4.817-3.809-7a3.352,3.352,0,0,0-4.317-1.372c-3.369,1.582-5.232,2.09-7.176,1.611C95.3,95.658,90.816,94.763,86.372,96.652Z"/><path class="b" d="M99.211,64.644C84.909,73.1,70.9,82.057,56.87,90.959q-4.926,3.127-9.842,6.269c-3.348,2.14-7.287,4.069-8.087,8.375a10.081,10.081,0,0,0,1.424,6.965q1.726,3.168,3.46,6.332,3.759,6.858,7.537,13.7c2.178,3.948,4,9.067,8.793,10.371C64,144.02,67.4,141.9,70.764,140.338q10.827-5.032,21.626-10.123,11.616-5.474,23.188-11.042c3.062-1.481,6.121-2.97,9.164-4.49,1.91-.953,3.712-1.972,4.214-4.25.46-2.086-.54-3.755-1.5-5.5l-11-20.082L110.684,74.3c-1.441-2.632-2.72-5.507-4.4-7.995a5.368,5.368,0,0,0-7.072-1.664c-2.748,1.412-.323,5.555,2.423,4.144.737-.378,1.333,1.415,1.636,1.968l2.119,3.869,5.155,9.411,10.91,19.92,2.066,3.772a6.13,6.13,0,0,1,.746,1.362c.1.492-.2.565-.644.8-2.694,1.4-5.445,2.7-8.175,4.031q-10.637,5.171-21.338,10.2-10.647,5.031-21.32,10.006-4.026,1.878-8.056,3.746a4.464,4.464,0,0,1-4.09.179c-1.691-.851-2.411-2.933-3.277-4.5q-3.42-6.189-6.826-12.387-1.764-3.213-3.525-6.428a58.094,58.094,0,0,1-3.159-5.808,4.123,4.123,0,0,1,.555-4.065c.892-1.133,2.466-1.841,3.665-2.608q4.477-2.867,8.965-5.718C70.6,87.915,84.17,79.3,97.927,71q1.848-1.116,3.707-2.216C104.291,67.218,101.879,63.067,99.211,64.644Z"/><path class="b" d="M106.322,245.463c-13.367.181-26.779-.651-40.119-1.4q-4.145-.233-8.287-.494a2.4,2.4,0,1,0,0,4.8c12.778.822,25.58,1.479,38.381,1.8,3.341.083,6.683.141,10.025.095,3.086-.041,3.095-4.841,0-4.8Z"/><path class="b" d="M59.96,195.9a188.4,188.4,0,0,1-.644,24.951c-.8,8.222-2.219,16.365-3.715,24.485a2.467,2.467,0,0,0,1.677,2.952,2.422,2.422,0,0,0,2.952-1.676c1.549-8.41,3-16.848,3.847-25.362a188.5,188.5,0,0,0,.683-25.35c-.11-3.08-4.91-3.095-4.8,0Z"/><path class="a" d="M93.92,74.644a21.763,21.763,0,0,0-1.638-5.576c-1.015-1.969-2.485-3.926-4.642-4.6-2.246-.7-3.827-.464-6.4.851-1.959,1-3.219,3.395-2.619,5.158.088.259.2.563.322.883l-.53-.307a6.125,6.125,0,0,0-7.094-1.069,6.488,6.488,0,0,0-3.1,3,4.712,4.712,0,0,0-.436,3.633c.018.053.041.118.06.173h-.007c-2.844-1.823-5.515-.81-7.785.918a6.727,6.727,0,0,0-2.813,6.223,4.735,4.735,0,0,0,.475,1.22l-.7-.132c-1.236-.79-3.86-.736-5.671.5a6.7,6.7,0,0,0-2.759,3.557c-.7,3.348,2.057,6.054,4.57,8.073A11.884,11.884,0,0,0,58.388,99.8a5.934,5.934,0,0,0,4.385-1.39,3.922,3.922,0,0,0,1.334-3.9l.014-.177c.444.547.839,1.018,1.14,1.353a8.886,8.886,0,0,0,2.821,1.687,4.952,4.952,0,0,0,5.611-1.73,4.546,4.546,0,0,0,.848-5.183l.095-.425A9.316,9.316,0,0,0,75.9,91.239a4.921,4.921,0,0,0,3.863.743,9.42,9.42,0,0,0,4.426-2.417,6.986,6.986,0,0,0,.914-7.452l.069-.629c.111.075.215.159.331.228a5.6,5.6,0,0,0,6.6-1.04C94.161,78.776,94.14,76.73,93.92,74.644Z"/><path class="b" d="M83.549,75.641c-.36-.635-.692-1.284-1.006-1.942q-.228-.477-.445-.959c-.072-.161-.144-.322-.214-.484,0,0-.307-.721-.163-.375-.256-.616-.509-1.238-.723-1.87-.073-.213-.112-.809-.121-.35,0-.144,0-.285.011-.428-.046.515.061-.114.091-.231.164-.649-.114.174.069-.175.074-.141.152-.278.236-.412.05-.079.365-.46.13-.192.108-.123.226-.233.337-.352.029-.032.34-.3.079-.094a3.833,3.833,0,0,1,.41-.266c.3-.173.853-.441,1.026-.516a7.964,7.964,0,0,1,1.117-.375c.194-.051.389-.1.587-.13-.118.02-.406.007.051.005.307,0,.61-.011.917.016-.4-.035-.01,0,.069.017.247.058.495.109.739.18a5.049,5.049,0,0,1,2.685,2.226,14.673,14.673,0,0,1,1.841,4.547A10.063,10.063,0,0,1,91.6,75.6c.017.317.024.635.011.952-.007.155-.014.316-.033.472.057-.462-.059.2-.084.3a4.443,4.443,0,0,1-.147.463c.135-.336-.094.153-.136.226a2.777,2.777,0,0,1-.577.743,4.509,4.509,0,0,1-1.461.99c-.159.052-.318.1-.481.143-.087.022-.734.1-.322.07-.2.012-.394.016-.592.009-.177-.007-.509-.083-.167-.007-.187-.042-.367-.1-.551-.146-.233-.063.2.151-.154-.064a4.205,4.205,0,0,1-.765-.511,13.608,13.608,0,0,1-2.593-3.6,2.4,2.4,0,1,0-4.144,2.422,17.473,17.473,0,0,0,3.343,4.57,7.773,7.773,0,0,0,6.5,2.016,8.536,8.536,0,0,0,7.1-9.765c-.427-4.378-2.332-9.622-6.323-11.965A10.009,10.009,0,0,0,77.489,65.5a6.49,6.49,0,0,0-.914,6.35,43.461,43.461,0,0,0,2.83,6.212,2.4,2.4,0,0,0,4.144-2.422Z"/><path class="b" d="M80.114,69.358a8.869,8.869,0,0,0-12.165.043,8.43,8.43,0,0,0-2.736,6.278,14.425,14.425,0,0,0,1.343,4.49,45.266,45.266,0,0,0,5.031,9.842,11.331,11.331,0,0,0,3.8,3.723,7.9,7.9,0,0,0,6.5.078,9.511,9.511,0,0,0,5.251-4.41,9.672,9.672,0,0,0,.271-7.927A2.47,2.47,0,0,0,84.462,79.8a2.418,2.418,0,0,0-1.677,2.952,5.363,5.363,0,0,1,.231,4.213,3.982,3.982,0,0,1-2.363,2.178,3.5,3.5,0,0,1-2.987.378,6.452,6.452,0,0,1-1.934-1.931,39.793,39.793,0,0,1-3.984-7.34c-.377-.861-.837-2.021-1.217-3.059a3.617,3.617,0,0,1-.314-2.839c1.082-2.485,4.5-3.578,6.5-1.6,2.2,2.171,5.6-1.221,3.394-3.394Z"/><path class="b" d="M69.056,74.716a8.151,8.151,0,0,0-7.038-.813,11.824,11.824,0,0,0-5.612,4.2,8.693,8.693,0,0,0-1.6,5.464,8.136,8.136,0,0,0,1.229,3.512A65.957,65.957,0,0,0,61.454,94.8a24.8,24.8,0,0,0,2.3,2.761,9.635,9.635,0,0,0,5.491,2.5,7.7,7.7,0,0,0,6.269-2.879,7.148,7.148,0,0,0,1.345-7.368A2.467,2.467,0,0,0,73.9,88.139a2.419,2.419,0,0,0-1.676,2.952,3.435,3.435,0,0,1,.36,1.673,3.574,3.574,0,0,1-.8,1.415,4.464,4.464,0,0,1-1.16.89,5.291,5.291,0,0,1-.759.215c.194-.022-.245,0-.221,0l-.268-.008c.153.025.146.02-.02-.015a2.231,2.231,0,0,1-.385-.111c.335.109-.026-.008-.086-.034-.3-.127-.591-.271-.877-.422a3.781,3.781,0,0,1-1.227-.912c-.628-.7-1.21-1.449-1.791-2.191l-.212-.272c-.24-.31.187.245-.057-.076q-.261-.341-.518-.682-.57-.759-1.126-1.527c-.7-.963-1.376-1.938-2.019-2.937-.523-.812-.975-1.646-1.433-2.494-.043-.081-.1-.31.012.033.15.45,0,.01.011,0,.061-.128-.083-.409-.034.058a5.81,5.81,0,0,1-.021-.875c.014-.274-.008-.069-.016-.008a4.649,4.649,0,0,1,.147-.657,5.594,5.594,0,0,1,2.667-3.135,3.733,3.733,0,0,1,4.243-.153c2.652,1.6,5.068-2.55,2.423-4.145Z"/><path class="b" d="M58.233,82.946a8.053,8.053,0,0,0-8.3.642c-2.8,2.01-4.556,5.138-3.56,8.62.812,2.838,3.044,5.023,5.3,6.8,2.594,2.043,5.589,3.691,8.982,3.031,3.643-.707,6.859-4.33,5.768-8.172a2.4,2.4,0,0,0-4.629,1.276c.124.435.047-.224.049.231s.064-.188-.039.256c-.093.4-.05.206,0,.08a3.2,3.2,0,0,1-.162.313c-.057.1-.119.2-.183.3.132-.2.045-.038-.056.066-.066.068-.474.448-.215.244a4.339,4.339,0,0,1-.6.377c-.1.056-.206.107-.31.157-.35.166.3-.1-.06.016-.247.076-.492.144-.742.207-.457.115.27.015-.179.03-.189.006-.379,0-.567.008-.4.017.32.1-.155-.023-.31-.084-.616-.167-.919-.274.011,0-.365-.151-.183-.071s-.2-.1-.184-.092c-.237-.121-.473-.242-.7-.374a16.379,16.379,0,0,1-1.585-1.034c-.222-.163-.506-.4-.867-.706-.395-.337-.781-.684-1.151-1.047a14.986,14.986,0,0,1-1.053-1.144c.216.261-.132-.184-.188-.266q-.227-.335-.422-.688c-.061-.112-.315-.735-.182-.351-.074-.212-.133-.426-.2-.641-.125-.426-.031.2-.052-.249-.006-.114-.01-.227-.01-.341,0-.042.011-.5-.006-.262s.022-.131.028-.154c.024-.1.052-.194.079-.292.07-.251-.024.034-.044.075.066-.138.14-.274.219-.405.042-.071.365-.541.191-.316a6.591,6.591,0,0,1,.609-.663,3.866,3.866,0,0,1,1.188-.867c.018-.009.356-.155.127-.064s.2-.061.245-.074c.251-.077.507-.122.761-.187-.415.107.162-.013.334-.019.242-.008.483.021.723.018-.527.008.1.045.294.085.056.011.353.115.035,0-.336-.125.093.064.144.094a2.4,2.4,0,0,0,2.422-4.145Z"/><path class="b" d="M148.6,70.344c-1.346,2.423-2.207,8.5,2.344,10.049,6.176,1.341,8.141-5.8,6.835-9.652C156.715,67.585,151.979,65.313,148.6,70.344Z"/></svg>